{"title":"The.Wonders.[Le.Meraviglie].2014.DVDRip.x264.HORiZON-ArtSubs","uid":11614929,"size":2135576925,"categoryP":"video","categoryS":"movies","magnet":"?xt=urn:btih:e734142f0045ce7b7be6ec622e3a9bdea8442d0e&amp;dn=The.Wonders.%5BLe.Meraviglie%5D.2014.DVDRip.x264.HORiZON-ArtSubs&amp;tr=udp%3A%2F%2Ftracker.openbittorrent.com%3A80&amp;tr=udp%3A%2F%2Fopen.demonii.com%3A1337&amp;tr=udp%3A%2F%2Ftracker.coppersurfer.tk%3A6969&amp;tr=udp%3A%2F%2Fexodus.desync.com%3A6969","seeders":32,"leechers":3,"uploader":"lletaif","files":-1,"time":1417493051,"description":"Title:\nThe Wonders Aka Le Meraviglie\n\n\nCountry:\nItaly, 2014\n\n\n\nLanguage:\nItalian\n\n\nSubtitle:\nItalian only german and french parts\n\n\nIMDB: &lt;a href=&quot;\nhttp://www.imdb.com/title/tt3044244/?ref_=nv_sr_1&quot; rel=&quot;nofollow&quot; target=&quot;_NEW&quot;&gt;\nhttp://www.imdb.com/title/tt3044244/?ref_=nv_sr_1&lt;/a&gt;\n\n\nPlot:\nNothing will be the same at the end of this summer for Gelsomina and her three younger sisters.\n\n\nTrivia:\nWon 5 prizes and 5 indications\n\n\nWon Grand Prize of the Jury in Cannes Film Festival 2014.\n\n\n\nMedia Info:\n\nGeneral\nUnique ID                                : 233723200051107590620195155277354803764 (0xAFD573729D91018790F94315D4B6A234)\nComplete name                            : The.Wonders.[Le.Meraviglie].2014.DVDRip.x264.HORiZON-ArtSubs.mkv\nFormat                                   : Matroska\nFormat version                           : Version 2\nFile size                                : 1.99 GiB\nDuration                                 : 1h 46mn\nOverall bit rate                         : 2 664 Kbps\nEncoded date                             : UTC 2014-11-30 22:28:27\nWriting application                      : DVDFab 9.1.4.0\nWriting library                          : libebml v0.7.8 + libmatroska v0.8.1\n\nVideo\nID                                       : 1\nFormat                                   : AVC\nFormat/Info                              : Advanced Video Codec\nFormat profile                           : &lt;a class=&quot;__cf_email__&quot; href=&quot;/cdn-cgi/l/email-protection&quot; data-cfemail=&quot;eba3828c83aba7dfc5da&quot;&gt;[email&amp;#160;protected]&lt;/a&gt;&lt;script cf-hash='f9e31' type=&quot;text/javascript&quot;&gt;\n/* &lt;![CDATA[ */!function(){try{var t=&quot;currentScript&quot;in document?document.currentScript:function(){for(var t=document.getElementsByTagName(&quot;script&quot;),e=t.length;e--;)if(t[e].getAttribute(&quot;cf-hash&quot;))return t[e]}();if(t&amp;&amp;t.previousSibling){var e,r,n,i,c=t.previousSibling,a=c.getAttribute(&quot;data-cfemail&quot;);if(a){for(e=&quot;&quot;,r=parseInt(a.substr(0,2),16),n=2;a.length-n;n+=2)i=parseInt(a.substr(n,2),16)^r,e+=String.fromCharCode(i);e=document.createTextNode(e),c.parentNode.replaceChild(e,c)}}}catch(u){}}();/* ]]&gt; */&lt;/script&gt;\nFormat settings, CABAC                   : Yes\nFormat settings, ReFrames                : 2 frames\nCodec ID                                 : V_MPEG4/ISO/AVC\nDuration                                 : 1h 46mn\nBit rate                                 : 2 163 Kbps\nWidth                                    : 1 024 pixels\nHeight                                   : 556 pixels\nDisplay aspect ratio                     : 1.85:1\nFrame rate mode                          : Constant\nFrame rate                               : 25.000 fps\nColor space                              : YUV\nChroma subsampling                       : 4:2:0\nBit depth                                : 8 bits\nScan type                                : Progressive\nBits/(Pixel*Frame)                       : 0.152\nStream size                              : 1.61 GiB (81%)\nWriting library                          : x264 core\nDefault                                  : Yes\nForced                                   : No\nColor primaries                          : BT.601 NTSC\nTransfer characteristics                 : BT.709\nMatrix coefficients                      : BT.601\n\nAudio\nID                                       : 2\nFormat                                   : AC-3\nFormat/Info                              : Audio Coding 3\nMode extension                           : CM (complete main)\nFormat settings, Endianness              : Big\nCodec ID                                 : A_AC3\nDuration                                 : 1h 46mn\nBit rate mode                            : Constant\nBit rate                                 : 448 Kbps\nChannel(s)                               : 6 channels\nChannel positions                        : Front: L C R, Side: L R, LFE\nSampling rate                            : 48.0 KHz\nBit depth                                : 16 bits\nCompression mode                         : Lossy\nStream size                              : 342 MiB (17%)\nLanguage                                 : Italian\nDefault                                  : Yes\nForced                                   : No\n\nMenu\n00:08:08.000                             : en:(01)00:08:08:000\n00:19:06.000                             : en:(02)00:19:06:000\n00:28:50.000                             : en:(03)00:28:50:000\n00:37:30.000                             : en:(04)00:37:30:000\n00:45:13.000                             : en:(05)00:45:13:000\n00:54:39.000                             : en:(06)00:54:39:000\n01:01:49.000                             : en:(07)01:01:49:000\n01:13:41.000                             : en:(08)01:13:41:000\n01:17:57.000                             : en:(09)01:17:57:000\n01:33:36.000                             : en:(10)01:33:36:000\n01:43:14.000                             : en:(11)01:43:14:000\n01:46:46.000                             : en:(12)01:46:46:000","torrent":{"xt":"urn:btih:e734142f0045ce7b7be6ec622e3a9bdea8442d0e","amp;dn":"The.Wonders.%5BLe.Meraviglie%5D.2014.DVDRip.x264.HORiZON-ArtSubs","amp;tr":["udp%3A%2F%2Ftracker.openbittorrent.com%3A80","udp%3A%2F%2Fopen.demonii.com%3A1337","udp%3A%2F%2Ftracker.coppersurfer.tk%3A6969","udp%3A%2F%2Fexodus.desync.com%3A6969"],"infoHash":"e734142f0045ce7b7be6ec622e3a9bdea8442d0e","infoHashBuffer":{"type":"Buffer","data":[231,52,20,47,0,69,206,123,123,230,236,98,46,58,155,222,168,68,45,14]},"announce":[],"urlList":[]}}